# AST/ASF file generated using VICON BodyLanguage
# -----------------------------------------------
:version 1.10
:name VICON
:units
  mass 1.0
  length 0.45
  angle deg
:documentation
   .ast/.asf automatically generated from VICON data using
   VICON BodyBuilder and BodyLanguage model FoxedUp or BRILLIANT.MOD
:root
   order TX TY TZ RX RY RZ
   axis XYZ
   position 0 0 0  
   orientation 0 0 0 
:bonedata
  begin
     id 1 
     name lhipjoint
     direction 0.604623 -0.733026 0.311616 
     length 2.56391 
     axis 0 0 0  XYZ
  end
  begin
     id 2 
     name lfemur
     direction 0.34202 -0.939693 0  
     length 7.75596  
     axis 0 0 20  XYZ
    dof rx ry rz
    limits (-160.0 20.0)
           (-70.0 70.0)
           (-60.0 70.0)
  end
  begin
     id 3 
     name ltibia
     direction 0.34202 -0.939693 0   
     length 7.63697   
     axis 0 0 20   XYZ
    dof rx
    limits (-10.0 170.0)
  end
  begin
     id 4 
     name lfoot
     direction 0.048038 -0.131983 0.990087   
     length 1.94388   
     axis -90 7.62852e-016 20   XYZ
    dof rx rz
    limits (-45.0 90.0)
           (-70.0 20.0)
  end
  begin
     id 5 
     name ltoes
     direction 1.53565e-011 -4.21929e-011 1   
     length 0.984801   
     axis -90 7.62852e-016 20   XYZ
    dof rx
    limits (-90.0 20.0)
  end
  begin
     id 6 
     name rhipjoint
     direction -0.609162 -0.729836 0.31026   
     length 2.57511  
     axis 0 0 0  XYZ 
  end
  begin
     id 7 
     name rfemur
     direction -0.34202 -0.939693 0   
     length 7.60772   
     axis 0 0 -20   XYZ
    dof rx ry rz
    limits (-160.0 20.0)
           (-70.0 70.0)
           (-70.0 60.0)
  end
  begin
     id 8 
     name rtibia
     direction -0.34202 -0.939693 0   
     length 7.68497   
     axis 0 0 -20   XYZ
    dof rx
    limits (-10.0 170.0)
 end
 begin
     id 9 
     name rfoot
     direction -0.0969806 -0.266452 0.958957   
     length 2.01398  
     axis -90 -7.62852e-016 -20   XYZ
    dof rx rz
    limits (-45.0 90.0)
           (-20.0 70.0)
  end
  begin
     id 10 
     name rtoes
     direction -1.53552e-011 -4.21869e-011 1   
     length 1.00896   
     axis -90 -7.62852e-016 -20   XYZ
    dof rx
    limits (-90.0 20.0)
  end
  begin
     id 11 
     name lowerback
     direction 0.0305179 0.993923 -0.10576   
     length 2.09077   
     axis 0 0 0   XYZ
    dof rx ry rz
    limits (-20.0 45.0)
           (-30.0 30.0)
           (-30.0 30.0)
  end
  begin
     id 12 
     name upperback
     direction -0.0137909 0.999867 0.00873764   
     length 2.08918   
     axis 0 0 0   XYZ
    dof rx ry rz
    limits (-20.0 45.0)
           (-30.0 30.0)
           (-30.0 30.0)
  end
  begin
     id 13 
     name thorax
     direction -0.0278536 0.997917 0.0581839   
     length 2.11939   
     axis 0 0 0   XYZ
    dof rx ry rz
    limits (-20.0 45.0)
           (-30.0 30.0)
           (-30.0 30.0)
  end
  begin
     id 14 
     name lowerneck
     direction 0.0138689 0.999837 -0.0116016   
     length 1.74353   
     axis 0 0 0   XYZ
    dof rx ry rz
    limits (-20.0 45.0)
           (-30.0 30.0)
           (-30.0 30.0)
  end
  begin
     id 15 
     name upperneck
     direction -0.00992078 0.999667 0.0238149   
     length 1.71734   
     axis 0 0 0   XYZ
    dof rx ry rz
    limits (-20.0 45.0)
           (-30.0 30.0)
           (-30.0 30.0)
  end
  begin
     id 16
     name head
     direction -0.00530555 0.999941 0.00944937  
     length 1.78249  
     axis 0 0 0   XYZ
    dof rx ry rz
    limits (-20.0 45.0)
           (-30.0 30.0)
           (-30.0 30.0)
  end
  begin
     id 17 
     name lclavicle
     direction 0.929165 0.366864 0.0454227  
     length 3.65686  
     axis 0 0 0   XYZ
    dof ry rz
    limits (-20.0 10.0)
           (0.0 20.0)
  end
  begin
     id 18 
     name lhumerus
     direction 1 -4.4897e-011 3.05413e-018   
     length 5.15218   
     axis -180 -30 -90   XYZ
    dof rx ry rz
    limits (-60.0 90.0)
           (-90.0 90.0)
           (-90.0 90.0)
  end
  begin
     id 19
     name lradius
     direction 1 -4.48963e-011 5.40022e-027   
     length 3.49459   
     axis -180 -30 -90   XYZ
    dof rx
    limits (-10.0 170.0)
  end
  begin
     id 20
     name lwrist
     direction 1 -4.48966e-011 9.79369e-027   
     length 1.7473   
     axis -4.67603e-015 90 90   XYZ
    dof ry
    limits (-180.0 0.0)
 end
  begin
     id 21 
     name lhand
     direction 1 -4.48996e-011 1.9593e-026   
     length 0.512466   
     axis -1.24987e-014 90 90   XYZ
    dof rx rz
    limits (-90.0 90.0)
           (-45.0 45.0)
  end
  begin
     id 22 
     name lfingers
     direction 1 -4.48931e-011 3.91616e-026   
     length 0.413163   
     axis -2.49979e-014 90 90   XYZ
    dof rx
    limits (0.0 90.0)
  end
  begin
     id 23
     name lthumb
     direction 0.707107 -6.34959e-011 0.707107   
     length 0.593222   
     axis -90 45 5.69224e-014   XYZ
    dof rx rz
    limits (-45.0 45.0)
           (-45.0 45.0)
  end
  begin
     id 24 
     name rclavicle
     direction -0.951469 0.307727 0.00346571   
     length 3.42864  
     axis 0 0 0   XYZ 
    dof ry rz
    limits (-10.0 20.0)
           (-20.0 0.0)
  end
  begin
     id 25 
     name rhumerus
     direction -1 -4.48967e-011 2.58643e-027  
     length 5.44344   
     axis -180 30 90   XYZ
    dof rx ry rz
    limits (-90.0 60.0)
           (-90.0 90.0)
           (-90.0 90.0)
  end
  begin
     id 26 
     name rradius
     direction -1 -4.48973e-011 4.26485e-028   
     length 3.58403   
     axis -180 30 90   XYZ
    dof rx
    limits (-10.0 170.0)
  end
  begin
     id 27 
     name rwrist
     direction -1 -4.48962e-011 9.79331e-027   
     length 1.79202   
     axis -4.67603e-015 -90 -90   XYZ
    dof ry
    limits (-180.0 0.0)
  end
  begin
     id 28
     name rhand
     direction -1 -4.48975e-011 1.95891e-026   
     length 0.34249   
     axis -1.24987e-014 -90 -90   XYZ
    dof rx rz
    limits (-90.0 90.0)
           (-45.0 45.0)
  end
  begin
     id 29
     name rfingers
     direction -1 -4.48893e-011 3.9147e-026   
     length 0.276124   
     axis -2.49979e-014 -90 -90   XYZ
    dof rx
    limits (0.0 90.0)
  end
  begin
     id 30
     name rthumb
     direction -0.707107 -6.34898e-011 0.707107   
     length 0.39646   
     axis -90 -45 -5.69224e-014   XYZ
    dof rx rz
    limits (-45.0 45.0)
           (-45.0 45.0)
  end
:hierarchy
  begin
    root lhipjoint rhipjoint lowerback
    lhipjoint lfemur
    lfemur ltibia
    ltibia lfoot
    lfoot ltoes
    rhipjoint rfemur
    rfemur rtibia
    rtibia rfoot
    rfoot rtoes
    lowerback upperback
    upperback thorax
    thorax lowerneck lclavicle rclavicle
    lowerneck upperneck
    upperneck head
    lclavicle lhumerus
    lhumerus lradius
    lradius lwrist
    lwrist lhand lthumb
    lhand lfingers
    rclavicle rhumerus
    rhumerus rradius
    rradius rwrist
    rwrist rhand rthumb
    rhand rfingers
  end

#!OML:ASF H:\charlestonDancing\Project 1\Capture day 1\Session 1\femaleDancer.ASF
:FULLY-SPECIFIED
:DEGREES
78
root -16.6338 16.8001 -7.89401 -298.278 79.4256 -312.27
lowerback 12.4313 -7.52073 4.79438
upperback -1.71786 -8.65371 5.60408
thorax -8.62401 -4.20575 5.04861
lowerneck -0.636936 -4.24749 0.188315
upperneck -5.10735 -5.57809 2.02904
head -1.41309 -2.81819 0.65094
rclavicle -4.45278e-014 -3.18055e-015
rhumerus -0.784856 9.94212 -36.2084
rradius 84.5307
rwrist -21.4582
rhand -11.3417 -28.4429
rfingers 7.12502
rthumb 14.6913 -57.9023
lclavicle -4.45278e-014 -3.18055e-015
lhumerus 5.16573 -30.6054 56.7119
lradius 84.4295
lwrist 34.7299
lhand -4.70589 23.7857
lfingers 7.12502
lthumb 21.076 52.6603
rfemur -53.1194 -19.1494 37.0479
rtibia 53.3543
rfoot -23.6543 -24.9468
rtoes 11.2945
lfemur -2.56988 16.0605 -32.8811
ltibia 39.0016
lfoot 23.9297 -9.56893
ltoes 21.6787
79
root -16.3996 16.831 -7.92415 -305.633 78.9528 -318.954
lowerback 12.5691 -7.39567 4.88946
upperback -1.7039 -8.44203 5.74948
thorax -8.68762 -4.09945 5.13082
lowerneck -0.88682 -4.29247 0.231321
upperneck -4.31092 -5.65464 2.01985
head -1.12031 -2.85223 0.619376
rclavicle 2.06736e-014 -8.42847e-014
rhumerus -0.625752 10.4098 -36.3464
rradius 84.4535
rwrist -21.2449
rhand -11.8634 -28.1903
rfingers 7.12502
rthumb 14.1886 -57.6857
lclavicle 2.06736e-014 -8.42847e-014
lhumerus 5.50742 -30.852 56.4354
lradius 83.9463
lwrist 35.4065
lhand -5.44766 24.6514
lfingers 7.12502
lthumb 20.3632 53.6038
rfemur -51.1561 -19.6117 37.1631
rtibia 53.1884
rfoot -24.6956 -24.2285
rtoes 11.0065
lfemur -4.54338 15.7639 -31.2316
ltibia 43.4857
lfoot 30.9339 -2.55261
ltoes 23.0602
80
root -16.1646 16.8726 -7.93846 -312.216 78.036 -324.428
lowerback 12.9418 -7.17712 4.50716
upperback -1.54271 -8.19532 5.69995
thorax -8.6832 -3.96278 5.26845
lowerneck -0.769068 -4.4019 0.17218
upperneck -3.61459 -5.80626 2.2507
head -0.913444 -2.92655 0.689744
rclavicle -1.31993e-013 1.08139e-013
rhumerus -0.580766 10.9111 -36.4754
rradius 84.3596
rwrist -20.8037
rhand -11.988 -28.0882
rfingers 7.12502
rthumb 14.0686 -57.5921
lclavicle -1.31993e-013 1.08139e-013
lhumerus 6.4677 -31.4789 55.5668
lradius 83.2422
lwrist 35.889
lhand -5.02311 24.1886
lfingers 7.12502
lthumb 20.7712 53.0969
rfemur -48.5855 -20.1405 36.7089
rtibia 52.8559
rfoot -25.6155 -23.3141
rtoes 10.8521
lfemur -6.23977 15.1921 -29.741
ltibia 47.9803
lfoot 36.5728 -0.974499
ltoes 17.4781
81
root -15.9451 16.8995 -7.95323 -318.259 76.973 -329.335
lowerback 13.344 -6.91655 4.14182
upperback -1.35164 -7.89563 5.61126
thorax -8.67619 -3.80262 5.34482
lowerneck -0.64296 -4.54671 -0.0463136
upperneck -2.92482 -6.00041 2.74755
head -0.698267 -3.02112 0.867261
rclavicle -7.63333e-014 1.00187e-013
rhumerus -0.599066 11.5113 -36.5064
rradius 84.3468
rwrist -20.1716
rhand -11.6557 -27.9128
rfingers 7.12502
rthumb 14.3888 -57.3941
lclavicle -7.63333e-014 1.00187e-013
lhumerus 7.76763 -32.279 54.3759
lradius 82.531
lwrist 35.7348
lhand -5.0214 23.4849
lfingers 7.12502
lthumb 20.7728 52.393
rfemur -46.0193 -20.4089 36.1336
rtibia 52.5182
rfoot -26.2315 -22.4334
rtoes 10.3924
lfemur -8.18562 13.6356 -28.5852
ltibia 52.488
lfoot 41.0776 -3.40774
ltoes 5.6293
82
root -15.7369 16.9136 -7.97537 -324.238 75.8519 -334.26
lowerback 13.6613 -6.66616 4.133
upperback -1.10526 -7.5619 5.4848
thorax -8.61868 -3.64302 5.16249
lowerneck -0.637455 -4.70991 -0.337246
upperneck -2.20417 -6.22228 3.40176
head -0.445626 -3.12652 1.10179
rclavicle -1.59028e-015 1.90833e-014
rhumerus -0.622339 12.0998 -36.5444
rradius 84.4034
rwrist -19.5391
rhand -11.1385 -27.5143
rfingers 7.12502
rthumb 14.887 -56.9594
lclavicle -1.59028e-015 1.90833e-014
lhumerus 9.26763 -33.0372 52.9041
lradius 81.9904
lwrist 35.1513
lhand -5.43476 23.565
lfingers 7.12502
lthumb 20.3756 52.5161
rfemur -43.5522 -20.4071 35.6728
rtibia 52.1786
rfoot -26.6186 -21.6273
rtoes 9.59606
lfemur -10.3752 12.1709 -27.2754
ltibia 57.1397
lfoot 43.4131 -5.53555
ltoes 6.14461
83
root -15.5345 16.9397 -7.9999 -330.625 74.4431 -339.491
lowerback 14.1059 -6.36088 4.40002
upperback -0.718961 -7.10912 5.27619
thorax -8.52957 -3.43755 4.71788
lowerneck -0.697385 -4.87632 -0.480448
upperneck -1.50415 -6.45528 4.00697
head -0.191846 -3.23485 1.29727
rclavicle -2.46493e-014 6.36111e-015
rhumerus -0.628058 12.5923 -36.7217
rradius 84.4911
rwrist -19.1036
rhand -10.6674 -27.0122
rfingers 7.12502
rthumb 15.3409 -56.4231
lclavicle -2.46493e-014 6.36111e-015
lhumerus 10.9864 -33.5964 51.1896
lradius 81.5467
lwrist 34.7497
lhand -4.86954 23.4818
lfingers 7.12502
lthumb 20.9188 52.3738
rfemur -40.7649 -20.087 35.2328
rtibia 51.6572
rfoot -27.072 -20.6781
rtoes 9.22713
lfemur -12.6234 10.7154 -25.7505
ltibia 61.7847
lfoot 43.0148 -8.17284
ltoes -3.79394
84
root -15.3414 16.9605 -8.02785 -336.934 72.7122 -344.624
lowerback 14.7569 -6.08059 4.76344
upperback -0.3494 -6.64192 5.14764
thorax -8.569 -3.22199 4.32682
lowerneck -0.313991 -4.92461 -0.676071
upperneck -1.11005 -6.52428 4.50663
head -0.109017 -3.26762 1.48997
rclavicle 1.11319e-014 4.6118e-014
rhumerus -0.472634 13.4459 -36.8526
rradius 84.6629
rwrist -19.0687
rhand -10.3745 -26.4843
rfingers 7.12502
rthumb 15.623 -55.8734
lclavicle 1.11319e-014 4.6118e-014
lhumerus 12.1817 -33.753 49.8176
lradius 81.2524
lwrist 34.5515
lhand -4.34336 23.124
lfingers 7.12502
lthumb 21.4242 51.9595
rfemur -37.9294 -19.5931 34.9477
rtibia 51.1583
rfoot -27.6034 -19.7201
rtoes 8.74124
lfemur -14.6382 9.16289 -23.9889
ltibia 66.1151
lfoot 40.9355 -8.53964
ltoes -4.63116
85
root -15.1521 17.0039 -8.05576 -343.228 70.8311 -349.931
lowerback 15.4705 -5.87262 5.50509
upperback -0.00615417 -6.17145 5.1588
thorax -8.68936 -3.01274 3.8815
lowerneck 0.273553 -4.86711 -0.766061
upperneck -0.943491 -6.44575 4.85443
head -0.142942 -3.23265 1.62954
rclavicle 4.09496e-014 2.06736e-014
rhumerus -0.123678 14.5082 -36.8952
rradius 84.8494
rwrist -19.2499
rhand -10.2532 -26.2688
rfingers 7.12502
rthumb 15.7398 -55.6488
lclavicle 4.09496e-014 2.06736e-014
lhumerus 12.9237 -33.5923 48.7275
lradius 81.1709
lwrist 34.5626
lhand -4.5252 23.1991
lfingers 7.12502
lthumb 21.2495 52.0543
rfemur -35.0627 -19.0952 35.1217
rtibia 50.345
rfoot -27.7999 -18.9183
rtoes 7.29425
lfemur -17.0137 7.49682 -21.7726
ltibia 70.0214
lfoot 38.2485 -10.5066
ltoes -10.1399
86
root -14.969 17.0406 -8.09449 -343.85 68.2677 -349.779
lowerback 15.8086 -5.43549 4.70703
upperback 0.231138 -5.78118 4.70602
thorax -8.58795 -2.80951 3.75374
lowerneck 0.663111 -4.83719 -0.552596
upperneck -0.831899 -6.40107 5.04795
head -0.175295 -3.21371 1.66422
rclavicle -3.89618e-014 -1.59028e-014
rhumerus 0.35961 15.3575 -37.0521
rradius 84.9215
rwrist -19.2589
rhand -10.0636 -26.1545
rfingers 7.12502
rthumb 15.9224 -55.52
lclavicle -3.89618e-014 -1.59028e-014
lhumerus 13.6865 -33.2584 47.6904
lradius 81.1553
lwrist 34.5549
lhand -5.01562 23.4511
lfingers 7.12502
lthumb 20.7784 52.3586
rfemur -33.0892 -18.4769 33.5944
rtibia 49.8029
rfoot -27.7235 -17.9107
rtoes 5.931
lfemur -19.5151 5.43533 -21.4733
ltibia 73.2784
lfoot 36.2624 -8.60974
ltoes -3.62454
87
root -14.7907 17.0882 -8.11502 -348.211 65.5269 -353.648
lowerback 16.2689 -4.9382 5.20073
upperback 0.612585 -5.00374 4.71653
thorax -8.4865 -2.44818 3.32509
lowerneck 0.919953 -4.8437 -0.384818
upperneck -0.724561 -6.40522 5.27197
head -0.18287 -3.21761 1.71241
rclavicle -9.93923e-015 -1.11319e-014
rhumerus 0.937502 16.1263 -37.2687
rradius 84.9669
rwrist -19.115
rhand -9.93221 -25.7081
rfingers 7.12502
rthumb 16.0489 -55.0634
lclavicle -9.93923e-015 -1.11319e-014
lhumerus 14.2095 -32.674 47.0037
lradius 81.1352
lwrist 34.0097
lhand -3.35914 22.6357
lfingers 7.12502
lthumb 22.3693 51.3606
rfemur -30.7803 -16.8638 33.8235
rtibia 49.067
rfoot -27.7512 -17.351
rtoes 4.691
lfemur -22.1329 3.89311 -19.1149
ltibia 76.1086
lfoot 33.3483 -9.75041
ltoes -8.30619
88
root -14.6076 17.1187 -8.1522 -348.873 62.627 -353.808
lowerback 16.4245 -4.44834 4.6474
upperback 0.919033 -4.50592 4.37687
thorax -8.22513 -2.19937 3.13658
lowerneck 1.15183 -4.77294 -0.46123
upperneck -0.668192 -6.30729 5.62962
head -0.193187 -3.17135 1.84532
rclavicle 2.50469e-014 2.06736e-014
rhumerus 1.62626 16.9812 -37.4292
rradius 85.1198
rwrist -18.9349
rhand -9.86093 -25.3849
rfingers 7.12502
rthumb 16.1176 -54.7347
lclavicle 2.50469e-014 2.06736e-014
lhumerus 14.3343 -32.1524 46.514
lradius 81.6201
lwrist 34.7846
lhand -4.68416 22.7848
lfingers 7.12502
lthumb 21.0969 51.6571
rfemur -29.1111 -15.4065 32.6196
rtibia 48.6998
rfoot -27.8948 -16.5749
rtoes 3.83825
lfemur -24.6 1.85793 -18.1692
ltibia 78.3301
lfoot 30.508 -7.99625
ltoes -6.62311
